<svg width="165.000000" height="46.110352" viewBox="0 0 165 46.1104" fill="none" xmlns="http://www.w3.org/2000/svg" xmlns:xlink="http://www.w3.org/1999/xlink">
	<desc>
			Created with Pixso.
	</desc>
	<defs/>
	<path id="Барча турдаги китоблар" d="M145.06 37.3604Q145.06 36.4229 145.207 35.7461C145.307 35.2949 145.455 34.9229 145.65 34.6304Q145.889 34.2744 146.219 34.0566L146.219 34.0566Q146.3 34.0029 146.387 33.958C146.713 33.7476 147.104 33.5859 147.562 33.4731C148.022 33.3604 148.556 33.269 149.163 33.1987L149.236 33.6104C148.919 33.647 148.624 33.688 148.353 33.7339C148.085 33.7798 147.839 33.8315 147.617 33.8892C147.394 33.9443 147.194 34.0068 147.018 34.0767C146.844 34.147 146.693 34.2261 146.565 34.3145C146.364 34.4365 146.191 34.6089 146.048 34.8315C145.905 35.0508 145.79 35.3223 145.705 35.6455C145.62 35.9688 145.566 36.3467 145.545 36.7798L145.582 36.7798Q145.627 36.6973 145.68 36.6196L145.68 36.6196Q145.824 36.4092 146.021 36.2354Q146.042 36.2168 146.065 36.1982Q146.323 35.9868 146.652 35.8604Q147.008 35.7188 147.434 35.7188C147.852 35.7188 148.202 35.8071 148.486 35.9839C148.772 36.1577 148.989 36.4136 149.135 36.7524Q149.355 37.2554 149.355 37.978Q149.355 38.7188 149.117 39.2769C148.958 39.6455 148.72 39.9321 148.403 40.1367C148.089 40.3379 147.696 40.4385 147.223 40.4385C146.839 40.4385 146.51 40.3604 146.236 40.2051C145.961 40.0464 145.737 39.8286 145.563 39.5513C145.393 39.2705 145.266 38.9443 145.184 38.5723C145.101 38.1973 145.06 37.7935 145.06 37.3604ZM60.7416 40.3467L60.7416 33.6606L64.478 33.6606L64.478 34.0859L61.2127 34.0859L61.2127 36.5967L62.4612 36.5967Q63.257 36.5967 63.7692 36.7935C64.1107 36.9214 64.3637 37.1196 64.5284 37.3877Q64.7799 37.7905 64.7799 38.4214C64.7799 39.0493 64.597 39.5283 64.2311 39.8574Q63.6869 40.3467 62.571 40.3467L60.7416 40.3467ZM73.3732 35.2798C74.0135 35.2798 74.5089 35.4946 74.8596 35.9243C75.2132 36.3545 75.39 36.9883 75.39 37.8271C75.39 38.3882 75.3062 38.8638 75.1385 39.2539C74.9708 39.6411 74.7314 39.9351 74.4205 40.1367C74.1125 40.3379 73.7421 40.4385 73.3091 40.4385C73.0104 40.4385 72.7497 40.394 72.5271 40.3057C72.3076 40.2144 72.1247 40.0923 71.9783 39.9399Q71.7731 39.7217 71.6558 39.4639Q71.6476 39.4458 71.6399 39.4277L71.6079 39.4277C71.617 39.6016 71.6246 39.7827 71.6307 39.9717C71.6368 40.1606 71.6399 40.3394 71.6399 40.5068L71.6399 42.5464L71.1734 42.5464L71.1734 35.3755L71.5576 35.3755L71.6125 36.3682L71.6399 36.3682Q71.7634 36.0845 71.9875 35.833C72.1368 35.665 72.3259 35.5312 72.5546 35.4307Q72.8976 35.2798 73.3732 35.2798ZM100.264 35.2798Q100.927 35.2798 101.383 35.5869Q101.588 35.7246 101.751 35.9243C102.104 36.3545 102.281 36.9883 102.281 37.8271C102.281 38.3882 102.197 38.8638 102.03 39.2539Q101.811 39.7593 101.429 40.0537L101.429 40.0537Q101.372 40.0977 101.312 40.1367C101.004 40.3379 100.633 40.4385 100.2 40.4385C99.9016 40.4385 99.6409 40.394 99.4183 40.3057C99.1989 40.2144 99.0159 40.0923 98.8696 39.9399Q98.6643 39.7217 98.547 39.4639L98.5455 39.4604Q98.5381 39.4443 98.5311 39.4277L98.4991 39.4277C98.5082 39.6016 98.5159 39.7827 98.522 39.9717C98.5281 40.1606 98.5311 40.3394 98.5311 40.5068L98.5311 42.5464L98.0646 42.5464L98.0646 35.3755L98.4488 35.3755L98.5037 36.3682L98.5311 36.3682C98.6135 36.1792 98.7293 36.0005 98.8787 35.833C99.0281 35.665 99.2171 35.5312 99.4458 35.4307C99.6744 35.3301 99.9473 35.2798 100.264 35.2798ZM143.958 37.8545C143.958 38.2388 143.911 38.5894 143.816 38.9062C143.722 39.2202 143.582 39.4917 143.396 39.7202C143.21 39.9492 142.978 40.126 142.7 40.251C142.426 40.376 142.106 40.4385 141.74 40.4385C141.392 40.4385 141.083 40.3774 140.812 40.2554C140.54 40.1304 140.31 39.9536 140.121 39.7251C139.935 39.4961 139.793 39.2251 139.696 38.9106Q139.549 38.4351 139.549 37.8545Q139.549 37.0542 139.815 36.478C139.995 36.0908 140.251 35.7949 140.583 35.5908C140.918 35.3833 141.319 35.2798 141.786 35.2798C142.267 35.2798 142.668 35.3892 142.989 35.6089Q143.122 35.6987 143.238 35.8076L143.238 35.8076Q143.54 36.0942 143.716 36.5142Q143.958 37.0952 143.958 37.8545ZM162.983 35.2798C163.623 35.2798 164.119 35.4946 164.469 35.9243C164.823 36.3545 165 36.9883 165 37.8271C165 38.3882 164.916 38.8638 164.748 39.2539C164.581 39.6411 164.341 39.9351 164.03 40.1367C163.723 40.3379 163.352 40.4385 162.919 40.4385C162.62 40.4385 162.36 40.394 162.137 40.3057C161.918 40.2144 161.735 40.0923 161.588 39.9399Q161.383 39.7217 161.266 39.4639Q161.258 39.4458 161.25 39.4277L161.218 39.4277C161.227 39.6016 161.235 39.7827 161.241 39.9717C161.247 40.1606 161.25 40.3394 161.25 40.5068L161.25 42.5464L160.783 42.5464L160.783 35.3755L161.168 35.3755L161.222 36.3682L161.25 36.3682C161.332 36.1792 161.448 36.0005 161.597 35.833C161.747 35.665 161.936 35.5312 162.165 35.4307C162.393 35.3301 162.666 35.2798 162.983 35.2798ZM67.9401 35.2886C68.4858 35.2886 68.8943 35.4258 69.1657 35.7002Q69.5728 36.1118 69.5728 37.0127L69.5728 40.3467L69.216 40.3467L69.1337 39.478L69.1063 39.478C68.9996 39.6641 68.87 39.8301 68.7175 39.9766C68.5651 40.1196 68.3776 40.2324 68.155 40.3149C67.9355 40.397 67.6672 40.4385 67.3501 40.4385C67.03 40.4385 66.7556 40.3848 66.5269 40.2783C66.3013 40.1714 66.126 40.0161 66.001 39.812Q65.8181 39.5054 65.8181 39.0664C65.8181 38.5723 66.0223 38.1973 66.4308 37.9414C66.8394 37.6821 67.4263 37.5356 68.1916 37.5024L69.1154 37.4565L69.1154 37.0952C69.1154 36.5859 69.0148 36.2231 68.8136 36.0068Q68.784 35.9751 68.7516 35.9463Q68.4539 35.6821 67.9218 35.6821Q67.5494 35.6821 67.2029 35.7764Q67.1919 35.7798 67.1809 35.7827C66.9461 35.8467 66.7068 35.9395 66.4629 36.0615L66.3165 35.6772C66.5543 35.5645 66.809 35.4717 67.0803 35.3984Q67.4919 35.2886 67.9401 35.2886ZM83.9193 35.2886C84.4651 35.2886 84.8736 35.4258 85.145 35.7002Q85.552 36.1118 85.552 37.0127L85.552 40.3467L85.1953 40.3467L85.113 39.478L85.0855 39.478C84.9788 39.6641 84.8492 39.8301 84.6968 39.9766C84.5443 40.1196 84.3568 40.2324 84.1343 40.3149C83.9147 40.397 83.6464 40.4385 83.3293 40.4385C83.0092 40.4385 82.7348 40.3848 82.5062 40.2783C82.2805 40.1714 82.1052 40.0161 81.9802 39.812Q81.7973 39.5054 81.7973 39.0664C81.7973 38.5723 82.0016 38.1973 82.4101 37.9414C82.8187 37.6821 83.4056 37.5356 84.1708 37.5024L85.0947 37.4565L85.0947 37.0952C85.0947 36.5859 84.994 36.2231 84.7928 36.0068C84.5916 35.7905 84.2943 35.6821 83.901 35.6821C83.6449 35.6821 83.3979 35.7158 83.1602 35.7827C82.9254 35.8467 82.686 35.9395 82.4421 36.0615L82.2958 35.6772C82.5336 35.5645 82.7881 35.4717 83.0595 35.3984C83.3339 35.3252 83.6205 35.2886 83.9193 35.2886ZM110.49 35.2886C111.036 35.2886 111.445 35.4258 111.716 35.7002C111.987 35.9746 112.123 36.4121 112.123 37.0127L112.123 40.3467L111.766 40.3467L111.684 39.478L111.657 39.478C111.55 39.6641 111.42 39.8301 111.268 39.9766C111.115 40.1196 110.928 40.2324 110.705 40.3149C110.486 40.397 110.218 40.4385 109.9 40.4385C109.58 40.4385 109.306 40.3848 109.077 40.2783C108.852 40.1714 108.676 40.0161 108.551 39.812C108.429 39.6074 108.368 39.3589 108.368 39.0664C108.368 38.5723 108.573 38.1973 108.981 37.9414C109.39 37.6821 109.977 37.5356 110.742 37.5024L111.666 37.4565L111.666 37.0952C111.666 36.5859 111.565 36.2231 111.364 36.0068Q111.334 35.9751 111.302 35.9463L111.302 35.9463Q111.004 35.6821 110.472 35.6821C110.216 35.6821 109.969 35.7158 109.731 35.7827C109.496 35.8467 109.257 35.9395 109.013 36.0615L108.867 35.6772C109.105 35.5645 109.359 35.4717 109.631 35.3984C109.905 35.3252 110.192 35.2886 110.49 35.2886ZM157.55 35.2886C158.096 35.2886 158.504 35.4258 158.776 35.7002C159.047 35.9746 159.183 36.4121 159.183 37.0127L159.183 40.3467L158.826 40.3467L158.744 39.478L158.716 39.478C158.609 39.6641 158.48 39.8301 158.328 39.9766C158.175 40.1196 157.988 40.2324 157.765 40.3149C157.545 40.397 157.277 40.4385 156.96 40.4385C156.64 40.4385 156.366 40.3848 156.137 40.2783C155.911 40.1714 155.736 40.0161 155.611 39.812C155.489 39.6074 155.428 39.3589 155.428 39.0664C155.428 38.5723 155.632 38.1973 156.041 37.9414C156.449 37.6821 157.036 37.5356 157.802 37.5024L158.725 37.4565L158.725 37.0952C158.725 36.5859 158.625 36.2231 158.424 36.0068C158.222 35.7905 157.925 35.6821 157.532 35.6821Q157.159 35.6821 156.813 35.7769Q156.802 35.7798 156.791 35.7827C156.556 35.8467 156.317 35.9395 156.073 36.0615L155.927 35.6772C156.164 35.5645 156.419 35.4717 156.69 35.3984C156.965 35.3252 157.251 35.2886 157.55 35.2886ZM77.137 35.3755L77.137 37.0449C77.137 37.4624 77.2407 37.7676 77.4481 37.9595C77.6553 38.1484 77.9587 38.2432 78.3582 38.2432C78.6996 38.2432 79.006 38.1899 79.2773 38.083C79.5518 37.9766 79.814 37.833 80.064 37.6533L80.064 35.3755L80.5259 35.3755L80.5259 40.3467L80.064 40.3467L80.064 38.0557C79.7927 38.2388 79.5198 38.3818 79.2454 38.4854Q78.8383 38.6411 78.285 38.6411C77.7575 38.6411 77.3566 38.5068 77.0822 38.2388C76.8108 37.9673 76.6752 37.5874 76.6752 37.0996L76.6752 35.3755L77.137 35.3755ZM92.7504 35.7827L91.0674 35.7827L91.0674 40.3467L90.6147 40.3467L90.6147 35.7827L88.9409 35.7827L88.9409 35.3755L92.7504 35.3755L92.7504 35.7827ZM92.9425 35.3755L93.4318 35.3755L94.6392 38.5312C94.7124 38.7173 94.7764 38.8896 94.8313 39.0479C94.8892 39.2036 94.9395 39.3467 94.9822 39.478C95.0249 39.606 95.0599 39.7231 95.0874 39.8301L95.1149 39.8301C95.1606 39.6899 95.2216 39.5098 95.2978 39.2905C95.374 39.0679 95.4609 38.8208 95.5585 38.5493L96.7521 35.3755L97.246 35.3755L94.9777 41.2798Q94.813 41.7095 94.6163 42.0068C94.4852 42.208 94.3313 42.3589 94.1544 42.46C93.9776 42.5635 93.7642 42.6152 93.5142 42.6152C93.4014 42.6152 93.2992 42.606 93.2078 42.5879C93.1163 42.5728 93.0279 42.5513 92.9425 42.5239L92.9425 42.126C93.0218 42.1504 93.1025 42.1699 93.1849 42.1855C93.2703 42.2036 93.3632 42.2129 93.4639 42.2129C93.6376 42.2129 93.787 42.1763 93.912 42.103C94.0401 42.0327 94.1544 41.9233 94.2551 41.7739C94.3557 41.6245 94.4502 41.4336 94.5386 41.2021L94.877 40.3193L92.9425 35.3755ZM107.042 35.3755L107.042 39.9399L107.71 39.9399L107.71 42.0298L107.257 42.0298L107.257 40.3467L103.452 40.3467L103.452 42.0298L103.004 42.0298L103.004 39.9399L103.338 39.9399C103.618 39.5527 103.853 39.1211 104.042 38.6455C104.231 38.1699 104.374 37.6577 104.472 37.1089C104.573 36.5571 104.626 35.9795 104.632 35.3755L107.042 35.3755ZM116.651 35.3755L116.651 35.7827L114.19 35.7827L114.19 40.3467L113.724 40.3467L113.724 35.3755L116.651 35.3755ZM118.123 35.3755L118.123 38.9473C118.123 39.0176 118.122 39.0894 118.119 39.1626C118.119 39.2354 118.117 39.3101 118.114 39.3862C118.114 39.4629 118.113 39.5376 118.11 39.6104C118.107 39.6836 118.102 39.7554 118.096 39.8257L121.064 35.3755L121.631 35.3755L121.631 40.3467L121.192 40.3467L121.192 36.4595C121.195 36.3589 121.198 36.2598 121.201 36.1621C121.204 36.0615 121.207 35.9673 121.21 35.8789L118.228 40.3467L117.675 40.3467L117.675 35.3755L118.123 35.3755ZM128.441 35.3755L128.976 35.3755L126.726 37.7905L129.113 40.3467L128.541 40.3467L126.2 37.8271L126.2 40.3467L125.733 40.3467L125.733 35.3755L126.2 35.3755L126.2 37.7905L128.441 35.3755ZM130.48 35.3755L130.48 38.9473Q130.48 39.0527 130.476 39.1626C130.476 39.2354 130.474 39.3101 130.471 39.3862Q130.471 39.501 130.467 39.6104C130.464 39.6836 130.459 39.7554 130.453 39.8257L133.421 35.3755L133.988 35.3755L133.988 40.3467L133.549 40.3467L133.549 36.4595C133.552 36.3589 133.555 36.2598 133.558 36.1621C133.561 36.0615 133.564 35.9673 133.567 35.8789L130.586 40.3467L130.032 40.3467L130.032 35.3755L130.48 35.3755ZM138.822 35.7827L137.139 35.7827L137.139 40.3467L136.686 40.3467L136.686 35.7827L135.013 35.7827L135.013 35.3755L138.822 35.3755L138.822 35.7827ZM154.157 40.3467L153.695 40.3467L153.695 35.7783L151.957 35.7783C151.899 36.5615 151.83 37.2446 151.751 37.8271C151.672 38.4062 151.57 38.8862 151.445 39.2676Q151.257 39.8345 150.978 40.1138C150.792 40.2998 150.562 40.3926 150.288 40.3926C150.208 40.3926 150.138 40.3882 150.077 40.3789C150.016 40.3726 149.967 40.3638 149.931 40.3516L149.931 39.9766C149.967 39.9854 150.009 39.9932 150.054 39.9995C150.1 40.0024 150.156 40.0039 150.224 40.0039C150.379 40.0039 150.518 39.9458 150.64 39.8301C150.762 39.7109 150.87 39.5312 150.964 39.2905C151.062 39.0493 151.146 38.7461 151.216 38.3804C151.286 38.0112 151.347 37.5771 151.399 37.0771Q151.481 36.3267 151.545 35.3755L154.157 35.3755L154.157 40.3467ZM73.3137 35.6865C72.9387 35.6865 72.6262 35.769 72.3762 35.9336C72.1293 36.0952 71.9448 36.333 71.8228 36.647Q71.6445 37.1133 71.6399 37.7905L71.6399 37.8682C71.6399 38.353 71.6993 38.7568 71.8182 39.0801C71.9402 39.4004 72.1216 39.6396 72.3625 39.7979C72.6064 39.9565 72.9083 40.0356 73.268 40.0356C73.6217 40.0356 73.9205 39.9492 74.1644 39.7754Q74.1764 39.7666 74.1882 39.7578Q74.5366 39.498 74.7224 39.0205C74.8504 38.6914 74.9144 38.292 74.9144 37.8223C74.9144 37.124 74.7803 36.5938 74.512 36.231Q74.3938 36.0693 74.2402 35.9556Q73.8764 35.6865 73.3137 35.6865ZM100.205 35.6865C99.83 35.6865 99.5175 35.769 99.2675 35.9336C99.0204 36.0952 98.836 36.333 98.7141 36.647C98.5952 36.958 98.5342 37.3394 98.5311 37.7905L98.5311 37.8682C98.5311 38.353 98.5906 38.7568 98.7095 39.0801C98.8314 39.4004 99.0128 39.6396 99.2537 39.7979C99.4976 39.9565 99.7994 40.0356 100.159 40.0356Q100.647 40.0356 100.995 39.8159Q101.026 39.7964 101.056 39.7754C101.299 39.6016 101.485 39.3501 101.614 39.0205Q101.806 38.5269 101.806 37.8223C101.806 37.124 101.671 36.5938 101.403 36.231C101.138 35.8682 100.739 35.6865 100.205 35.6865ZM140.025 37.8545C140.025 38.2905 140.088 38.6714 140.213 38.9976C140.338 39.3237 140.527 39.5786 140.78 39.7612C141.036 39.9443 141.359 40.0356 141.749 40.0356C142.149 40.0356 142.476 39.9443 142.732 39.7612C142.989 39.5786 143.178 39.3223 143.299 38.9932C143.421 38.6641 143.482 38.2842 143.482 37.8545C143.482 37.4365 143.424 37.0649 143.309 36.7383C143.193 36.4121 143.01 36.1562 142.76 35.9702Q142.385 35.6865 141.781 35.6865C141.205 35.6865 140.767 35.8789 140.469 36.2627C140.173 36.647 140.025 37.1777 140.025 37.8545ZM162.924 35.6865C162.549 35.6865 162.236 35.769 161.986 35.9336C161.739 36.0952 161.555 36.333 161.433 36.647C161.314 36.958 161.253 37.3394 161.25 37.7905L161.25 37.8682C161.25 38.353 161.309 38.7568 161.428 39.0801C161.55 39.4004 161.732 39.6396 161.972 39.7979Q162.338 40.0356 162.878 40.0356C163.232 40.0356 163.53 39.9492 163.774 39.7754C164.018 39.6016 164.204 39.3501 164.332 39.0205Q164.524 38.5269 164.524 37.8223Q164.524 36.7749 164.122 36.231C163.857 35.8682 163.457 35.6865 162.924 35.6865ZM106.589 35.7642L105.053 35.7642C105.028 36.3101 104.967 36.833 104.87 37.333Q104.723 38.0786 104.467 38.7368C104.297 39.1729 104.089 39.5737 103.845 39.9399L106.589 39.9399L106.589 35.7642ZM147.26 40.0356C147.626 40.0356 147.928 39.9551 148.166 39.7935C148.403 39.6289 148.58 39.3955 148.696 39.0938C148.812 38.7891 148.87 38.4277 148.87 38.0098C148.87 37.3911 148.743 36.9229 148.49 36.606C148.237 36.2856 147.867 36.1255 147.379 36.1255C147.095 36.1255 146.838 36.1777 146.606 36.2812C146.374 36.3848 146.169 36.5283 145.989 36.7109C145.812 36.8911 145.659 37.0981 145.531 37.333C145.531 37.6714 145.557 38.0024 145.609 38.3257C145.661 38.6455 145.751 38.9351 145.879 39.1943C146.007 39.4536 146.182 39.6592 146.405 39.812C146.63 39.9609 146.916 40.0356 147.26 40.0356ZM61.2127 39.9307L62.5024 39.9307Q63.4353 39.9307 63.8607 39.5693Q63.8997 39.5361 63.9352 39.4995L63.9352 39.4995Q64.2905 39.1323 64.2905 38.4214Q64.2905 37.8774 64.0756 37.5708C63.9323 37.3667 63.7189 37.2231 63.4353 37.1411Q63.0146 37.0176 62.3926 37.0176L61.2127 37.0176L61.2127 39.9307ZM69.1108 37.8179L68.2419 37.8545C67.6108 37.8848 67.1306 37.9976 66.8013 38.1929Q66.5641 38.3335 66.4409 38.5415Q66.3074 38.7666 66.3074 39.0708C66.3074 39.3848 66.405 39.626 66.6001 39.7935Q66.8973 40.0449 67.4233 40.0449C67.9691 40.0449 68.3852 39.8896 68.6718 39.5786C68.9614 39.2676 69.1078 38.8438 69.1108 38.3071L69.1108 37.8179ZM85.0901 37.8179L84.2211 37.8545C83.59 37.8848 83.1098 37.9976 82.7805 38.1929Q82.5433 38.3335 82.4201 38.5415Q82.2866 38.7666 82.2866 39.0708C82.2866 39.3848 82.3842 39.626 82.5793 39.7935C82.7775 39.9609 83.0519 40.0449 83.4025 40.0449C83.9483 40.0449 84.3644 39.8896 84.6511 39.5786C84.9407 39.2676 85.087 38.8438 85.0901 38.3071L85.0901 37.8179ZM111.661 37.8179L110.792 37.8545C110.161 37.8848 109.681 37.9976 109.352 38.1929C109.022 38.3882 108.858 38.6807 108.858 39.0708C108.858 39.3848 108.955 39.626 109.15 39.7935C109.349 39.9609 109.623 40.0449 109.974 40.0449C110.519 40.0449 110.936 39.8896 111.222 39.5786C111.512 39.2676 111.658 38.8438 111.661 38.3071L111.661 37.8179ZM158.721 37.8179L157.852 37.8545C157.221 37.8848 156.741 37.9976 156.411 38.1929C156.082 38.3882 155.917 38.6807 155.917 39.0708C155.917 39.3848 156.015 39.626 156.21 39.7935C156.408 39.9609 156.683 40.0449 157.033 40.0449C157.579 40.0449 157.995 39.8896 158.282 39.5786Q158.324 39.5337 158.362 39.4854Q158.717 39.0342 158.721 38.3071L158.721 37.8179Z" fill="#11142D" fill-opacity="1.000000" fill-rule="evenodd"/>
	<path id="Liber" d="M79.1537 6.48438C79.7278 6.48438 80.2218 6.61963 80.6355 6.88965Q80.7151 6.93994 80.7845 7.00195Q81.256 7.42188 81.256 8.37158Q81.256 9.30322 80.7908 9.7417L80.7894 9.74316Q80.718 9.81055 80.6355 9.86572C80.2218 10.1362 79.7278 10.271 79.1537 10.271C78.5712 10.271 78.073 10.1362 77.6593 9.86572Q77.5881 9.81689 77.5251 9.75879L77.525 9.75879L77.525 9.75879L77.525 9.75879Q77.0514 9.32129 77.0514 8.37158Q77.0514 7.40479 77.5303 6.98682L77.5304 6.98682Q77.591 6.93359 77.6593 6.88965C78.073 6.61963 78.5712 6.48438 79.1537 6.48438ZM91.3411 11.0688L91.3411 6.48438L87.4785 6.48438L87.4785 26.1904L90.4293 26.1904L91.0752 24.6328L91.3411 24.6328C91.7126 25.0972 92.1981 25.5151 92.7976 25.8867C93.397 26.2583 94.216 26.4438 95.2545 26.4438C96.3353 26.4438 97.2851 26.1694 98.1041 25.6206C98.923 25.0635 99.5605 24.2402 100.016 23.1509Q100.7 21.5044 100.7 19.0854C100.7 16.688 100.206 14.8682 99.2186 13.6274C98.2307 12.3862 96.9431 11.7656 95.3558 11.7656C94.3342 11.7656 93.5026 11.9722 92.8609 12.3862C92.2192 12.7915 91.7126 13.2852 91.3411 13.8677L91.1892 13.8677C91.2314 13.5806 91.2651 13.1753 91.2905 12.6519Q91.3411 11.8667 91.3411 11.0688ZM60.52 26.1904L60.52 7.6748L64.446 7.6748L64.446 22.9482L71.9562 22.9482L71.9562 26.1904L60.52 26.1904ZM112.065 11.7656C113.373 11.7656 114.5 12.019 115.446 12.5254C116.392 13.0234 117.122 13.7495 117.637 14.7036C118.152 15.6577 118.409 16.8228 118.409 18.1992L118.409 20.0737L109.278 20.0737C109.321 21.1626 109.646 22.0195 110.253 22.6445C110.87 23.2607 111.723 23.5688 112.812 23.5688C113.715 23.5688 114.543 23.4761 115.294 23.2905C116.045 23.1045 116.818 22.8262 117.612 22.4546L117.612 25.4434C116.911 25.7896 116.176 26.043 115.408 26.2031C114.648 26.3638 113.724 26.4438 112.634 26.4438C111.216 26.4438 109.958 26.1821 108.86 25.6587C107.771 25.1353 106.914 24.3374 106.289 23.2651C105.673 22.1929 105.365 20.8418 105.365 19.2124Q105.365 16.73 106.201 15.0835C106.766 13.9775 107.552 13.1504 108.556 12.6016Q110.064 11.7656 112.065 11.7656ZM132.459 11.8037C132.205 11.7783 131.982 11.7656 131.787 11.7656Q131.05 11.7656 130.392 11.9927Q130.213 12.0542 130.04 12.1328C129.508 12.3691 129.031 12.6899 128.609 13.0952C128.195 13.4922 127.849 13.9312 127.57 14.4126L127.38 14.4126L126.81 12.0312L123.885 12.0312L123.885 26.1904L127.747 26.1904L127.747 18.9844C127.747 18.3174 127.853 17.7559 128.064 17.2998Q128.366 16.6602 128.861 16.2559Q128.905 16.2197 128.951 16.1855C129.322 15.8984 129.74 15.6914 130.204 15.5649C130.677 15.4385 131.163 15.375 131.661 15.375C131.83 15.375 132.028 15.3877 132.256 15.4131C132.492 15.4297 132.674 15.4595 132.801 15.5015L133.092 11.8794C132.931 11.8457 132.72 11.8203 132.459 11.8037ZM81.0787 12.0312L81.0787 26.1904L77.2161 26.1904L77.2161 12.0312L81.0787 12.0312ZM112.09 14.5137C111.338 14.5137 110.714 14.7544 110.216 15.2358C109.726 15.7168 109.443 16.4727 109.367 17.5024L114.787 17.5024C114.779 16.9287 114.673 16.4175 114.471 15.9702C114.277 15.5225 113.981 15.168 113.584 14.9062Q113.002 14.5137 112.09 14.5137ZM92.5063 15.2734C92.9031 14.9951 93.4393 14.8555 94.1147 14.8555Q94.6848 14.8555 95.1431 15.082Q95.6723 15.3433 96.0524 15.9067C96.5252 16.6074 96.7616 17.6504 96.7616 19.0352C96.7616 20.4199 96.5252 21.4795 96.0524 22.2139C95.588 22.9482 94.959 23.3154 94.1653 23.3154Q92.9821 23.3154 92.3403 22.7261L92.34 22.7261Q92.1096 22.5142 91.949 22.2266C91.5438 21.4922 91.3411 20.4365 91.3411 19.0605L91.3411 18.6426Q91.3665 17.3633 91.6324 16.5273Q91.8971 15.7334 92.4473 15.3164Q92.4764 15.2944 92.5063 15.2734Z" fill="#11142D" fill-opacity="1.000000" fill-rule="evenodd"/>
	<path id="Rectangle 8" d="M0 10.0869C0 4.51611 4.51593 0 10.0867 0L36.0238 0C41.5945 0 46.1105 4.51611 46.1105 10.0869L46.1105 36.0239C46.1105 41.5947 41.5945 46.1104 36.0238 46.1104L10.0867 46.1104C4.51593 46.1104 0 41.5947 0 36.0239L0 10.0869Z" fill="#3F51B5" fill-opacity="1.000000" fill-rule="nonzero"/>
	<path id="Subtract" d="M37.3114 13.7617L35.0581 13.7617L35.0581 10.811C35.0581 10.5049 34.7975 10.2573 34.4749 10.2573C33.5032 10.2573 32.6102 10.3423 31.7751 10.481L31.7624 10.4761L31.7222 10.4902C29.8737 10.8047 28.348 11.415 27.105 12.1587C27.0962 12.1641 27.0869 12.1689 27.0782 12.1743C25.1608 13.3271 23.9077 14.7803 23.158 15.8931C23.0164 16.0371 22.8865 16.1787 22.7706 16.314C21.8536 15.2422 20.1182 13.7617 17.5215 13.7617L8.2309 13.7617C7.7478 13.7617 7.35614 14.1328 7.35614 14.5908L7.35614 31.314C7.35614 31.7715 7.7478 32.144 8.2309 32.144L17.4592 32.144C19.9632 32.144 22.0201 34.9321 22.0497 34.9722C22.0521 34.9756 22.056 34.9775 22.058 34.981C22.0937 35.0283 22.1342 35.0708 22.1786 35.1104C22.1912 35.1216 22.2053 35.1313 22.2186 35.1421C22.2572 35.1719 22.2979 35.1992 22.3422 35.2231C22.3532 35.228 22.3636 35.2363 22.3754 35.2417C22.4184 35.2622 22.4636 35.2803 22.5116 35.2944C22.5212 35.2974 22.5312 35.2988 22.5407 35.3013C22.5578 35.3057 22.5746 35.3081 22.591 35.312C22.6465 35.3232 22.7026 35.3301 22.7589 35.3311C22.7626 35.3311 22.7662 35.3325 22.7706 35.3325C22.8344 35.3325 22.899 35.3237 22.9625 35.3101C22.972 35.3076 22.9818 35.3066 22.9913 35.3037C23.004 35.3013 23.0164 35.2998 23.0291 35.2959C23.0787 35.2812 23.1271 35.2612 23.1718 35.2393C23.1757 35.2368 23.1793 35.2349 23.1832 35.2334C23.2362 35.2056 23.2855 35.1738 23.3304 35.1372C23.3399 35.1294 23.3494 35.1221 23.3594 35.1147C23.406 35.0737 23.4481 35.0288 23.4844 34.98C23.4865 34.9771 23.4895 34.9746 23.4916 34.9722C23.5126 34.9438 25.5731 32.144 28.0825 32.144L37.3114 32.144C37.7945 32.144 38.1853 31.7715 38.1853 31.314L38.1853 14.5908C38.1853 14.1328 37.7945 13.7617 37.3114 13.7617ZM36.437 30.4839L28.0825 30.4839C27.7407 30.4839 27.409 30.5176 27.0878 30.5781C28.893 29.2349 31.3481 28.0874 34.4749 28.0874C34.7975 28.0874 35.0581 27.8394 35.0581 27.5337L35.0581 15.4214L36.437 15.4214L36.437 30.4839ZM12.277 20.1523C13.0337 19.4126 14.0599 18.9971 15.13 18.9971C16.2001 18.9971 17.2263 19.4126 17.983 20.1523C18.7396 20.8921 19.1647 21.895 19.1647 22.9409L17.6517 22.9409C17.3842 22.9409 17.1276 23.0449 16.9384 23.2295C16.7493 23.4146 16.643 23.6655 16.643 23.9268L16.643 26.3916C16.643 26.6533 16.7493 26.9038 16.9384 27.0889C17.1276 27.2734 17.3842 27.3774 17.6517 27.3774L19.1647 27.3774C19.4322 27.3774 19.6887 27.2734 19.8779 27.0889C20.0671 26.9038 20.1733 26.6533 20.1733 26.3916L20.1733 22.9409C20.1733 20.2183 17.9155 18.0112 15.13 18.0112C12.3446 18.0112 10.0867 20.2183 10.0867 22.9409L10.0867 26.3916C10.0867 26.6533 10.1929 26.9038 10.3821 27.0889C10.5713 27.2734 10.8278 27.3774 11.0953 27.3774L12.6083 27.3774C12.8759 27.3774 13.1324 27.2734 13.3216 27.0889C13.5107 26.9038 13.617 26.6533 13.617 26.3916L13.617 23.9268C13.617 23.6655 13.5107 23.4146 13.3216 23.2295C13.1324 23.0449 12.8759 22.9409 12.6083 22.9409L11.0953 22.9409C11.0953 21.895 11.5204 20.8921 12.277 20.1523ZM11.0953 26.3916L11.0953 23.9268L12.6083 23.9268L12.6083 26.3916L11.0953 26.3916ZM17.6517 26.3916L17.6517 23.9268L19.1647 23.9268L19.1647 26.3916L17.6517 26.3916ZM28.6235 28.3013L28.6277 28.2998C28.6256 28.3013 28.6233 28.3018 28.6212 28.3032L28.6235 28.3013Z" clip-rule="evenodd" fill="#FFFFFF" fill-opacity="1.000000" fill-rule="evenodd"/>
</svg>
