<svg width="18.000000" height="20.000000" viewBox="0 0 18 20" fill="none" xmlns="http://www.w3.org/2000/svg" xmlns:xlink="http://www.w3.org/1999/xlink">
	<desc>
			Created with Pixso.
	</desc>
	<defs/>
	<path id="Vector" d="M0 16.5L0 3C0 2.20435 0.31604 1.44128 0.878662 0.878662C1.44128 0.31604 2.20435 0 3 0L17 0C17.2653 0 17.5195 0.105347 17.7072 0.292847C17.8947 0.480469 18 0.734741 18 1L18 19C18 19.2653 17.8947 19.5195 17.7072 19.7072C17.5195 19.8947 17.2653 20 17 20L3.5 20C2.57178 20 1.68152 19.6312 1.02515 18.9749C0.368774 18.3185 0 17.4282 0 16.5ZM16 18L16 15L3.5 15C3.10217 15 2.7207 15.1581 2.43933 15.4393C2.15808 15.7207 2 16.1022 2 16.5C2 16.8978 2.15808 17.2793 2.43933 17.5607C2.7207 17.8419 3.10217 18 3.5 18L16 18ZM7 2L3 2C2.73474 2 2.48047 2.10535 2.29285 2.29285C2.10535 2.48047 2 2.73474 2 3L2 13.337C2.46875 13.1144 2.9812 12.9993 3.5 13L16 13L16 2L14 2L14 10L10.5 8L7 10L7 2Z" fill="#3F51B5" fill-opacity="1.000000" fill-rule="nonzero"/>
</svg>
