<svg width="19.762085" height="19.761963" viewBox="0 0 19.7621 19.762" fill="none" xmlns="http://www.w3.org/2000/svg" xmlns:xlink="http://www.w3.org/1999/xlink">
	<desc>
			Created with Pixso.
	</desc>
	<defs/>
	<path id="coolicon" d="M16.248 14.7593C16.1655 14.7612 16.0829 14.762 16 14.762C9.92493 14.762 5 9.83716 5 3.76196C5 3.6792 5.00098 3.59644 5.00281 3.51392C3.17212 4.98071 2 7.2356 2 9.76196C2 14.1804 5.58167 17.762 10 17.762C12.5266 17.762 14.7814 16.5898 16.248 14.7593ZM17.4661 12.6433C16.989 12.7214 16.4993 12.762 16 12.762C11.0294 12.762 7 8.73267 7 3.76196C7 3.26294 7.04065 2.77295 7.11877 2.2959C7.25098 1.4895 7.49023 0.719238 7.82166 0C6.96021 0.191406 6.14075 0.493896 5.37878 0.891602C2.18213 2.5603 0 5.90625 0 9.76196C0 15.2849 4.47717 19.762 10 19.762C13.8557 19.762 17.2018 17.5798 18.8705 14.3833C19.2682 13.6213 19.5707 12.8018 19.7621 11.9404C19.0428 12.2717 18.2725 12.5112 17.4661 12.6433Z" fill="#3F51B5" fill-opacity="1.000000" fill-rule="evenodd"/>
</svg>
