<svg width="16.000000" height="20.643799" viewBox="0 0 16 20.6438" fill="none" xmlns="http://www.w3.org/2000/svg" xmlns:xlink="http://www.w3.org/1999/xlink">
	<desc>
			Created with Pixso.
	</desc>
	<defs/>
	<path id="Vector" d="M1 0L15 0C15.2653 0 15.5195 0.105469 15.7072 0.292969C15.8947 0.480469 16 0.734863 16 1L16 20.1431C16.0001 20.2324 15.9762 20.3203 15.9309 20.3972C15.8855 20.4744 15.8203 20.5378 15.7422 20.5811C15.6639 20.6243 15.5756 20.646 15.4862 20.6436C15.3967 20.6409 15.3097 20.6145 15.234 20.5669L8 16.03L0.765991 20.5659C0.690308 20.6135 0.603394 20.6399 0.51416 20.6423C0.424805 20.645 0.336426 20.6235 0.258301 20.5803C0.180054 20.5371 0.114868 20.4739 0.069458 20.397C0.0240479 20.3201 0.00012207 20.2324 0 20.1431L0 1C0 0.734863 0.105347 0.480469 0.292847 0.292969C0.480469 0.105469 0.734741 0 1 0ZM14 2L2 2L2 17.4319L8 13.6709L14 17.4319L14 2Z" fill="#3F51B5" fill-opacity="1.000000" fill-rule="nonzero"/>
</svg>
