<svg width="19.000000" height="18.000000" viewBox="0 0 19 18" fill="none" xmlns="http://www.w3.org/2000/svg" xmlns:xlink="http://www.w3.org/1999/xlink">
	<desc>
			Created with Pixso.
	</desc>
	<defs/>
	<path id="Vector" d="M18 2L18 4.28003C18.59 4.63 19 5.26001 19 6L19 12C19 12.74 18.59 13.37 18 13.72L18 16C18 17.1 17.1 18 16 18L2 18C0.890015 18 0 17.1 0 16L0 2C0 0.900024 0.890015 0 2 0L16 0C17.1 0 18 0.900024 18 2ZM2 2L2 16L16 16L16 14L10 14C8.90002 14 8 13.1 8 12L8 6C8 4.90002 8.90002 4 10 4L16 4L16 2L2 2ZM10 12L17 12L17 6L10 6L10 12ZM14.5 9C14.5 9.82837 13.8284 10.5 13 10.5C12.1716 10.5 11.5 9.82837 11.5 9C11.5 8.17163 12.1716 7.5 13 7.5C13.8284 7.5 14.5 8.17163 14.5 9Z" fill="#3F51B5" fill-opacity="1.000000" fill-rule="evenodd"/>
</svg>
