<svg width="19.403809" height="20.000000" viewBox="0 0 19.4038 20" fill="none" xmlns="http://www.w3.org/2000/svg" xmlns:xlink="http://www.w3.org/1999/xlink">
	<desc>
			Created with Pixso.
	</desc>
	<defs/>
	<path id="coolicon" d="M11.5226 20L7.88257 20C7.41272 20 7.0061 19.6731 6.90552 19.2141L6.49854 17.3301C5.95557 17.092 5.4408 16.7947 4.9635 16.4431L3.12659 17.0281C2.67859 17.1709 2.19153 16.9824 1.95654 16.575L0.132568 13.4241C-0.0998535 13.0166 -0.0197754 12.5024 0.325562 12.1851L1.75061 10.885C1.68579 10.2961 1.68579 9.7019 1.75061 9.11304L0.325562 7.81592C-0.0202637 7.49829 -0.100342 6.98364 0.132568 6.57593L1.95251 3.4231C2.1875 3.01562 2.67456 2.82715 3.12256 2.96997L4.95959 3.55493C5.20361 3.37427 5.45764 3.20728 5.72058 3.05493C5.9729 2.9126 6.23254 2.78394 6.49854 2.66895L6.90662 0.787109C7.00659 0.327881 7.41272 0.000488281 7.88257 0L11.5226 0C11.9923 0.000488281 12.3984 0.327881 12.4985 0.787109L12.9105 2.66992C13.1913 2.79346 13.4648 2.93311 13.7296 3.08789C13.9764 3.23071 14.2152 3.38745 14.4446 3.55688L16.2826 2.97192C16.7302 2.82959 17.2167 3.01807 17.4515 3.42505L19.2716 6.57788C19.504 6.9856 19.424 7.49951 19.0786 7.81689L17.6536 9.11694C17.7184 9.70581 17.7184 10.3 17.6536 10.8889L19.0786 12.189C19.424 12.5066 19.504 13.0205 19.2716 13.428L17.4515 16.5811C17.2167 16.9878 16.7302 17.1763 16.2826 17.0339L14.4446 16.449C14.212 16.6204 13.9703 16.7788 13.7206 16.9241C13.4584 17.0759 13.188 17.2131 12.9105 17.335L12.4985 19.2141C12.3981 19.6726 11.9921 19.9995 11.5226 20ZM5.32251 14.229L6.14258 14.8291C6.32739 14.9651 6.52002 15.0903 6.7196 15.2041C6.90723 15.3127 7.10046 15.4116 7.29858 15.5L8.23157 15.9089L8.6886 18L10.7185 18L11.1755 15.908L12.1085 15.499C12.5159 15.3193 12.9025 15.0962 13.2616 14.833L14.0825 14.2329L16.1235 14.8831L17.1385 13.125L15.5555 11.6819L15.6676 10.6699C15.7168 10.2273 15.7168 9.78052 15.6676 9.33789L15.5555 8.32593L17.1395 6.87988L16.1235 5.12109L14.0825 5.771L13.2616 5.1709C12.9023 4.90674 12.5157 4.68164 12.1085 4.5L11.1755 4.09106L10.7185 2L8.6886 2L8.22961 4.09204L7.29858 4.5C7.10034 4.58716 6.9071 4.68481 6.7196 4.79297C6.52124 4.90625 6.32959 5.03076 6.14551 5.16602L5.32458 5.76611L3.28455 5.11597L2.26758 6.87988L3.85059 8.32104L3.73853 9.33398C3.68933 9.77661 3.68933 10.2234 3.73853 10.666L3.85059 11.678L2.26758 13.1211L3.28259 14.8789L5.32251 14.229ZM9.69861 14C7.48938 14 5.69861 12.2092 5.69861 10C5.69861 7.79077 7.48938 6 9.69861 6C11.9077 6 13.6986 7.79077 13.6986 10C13.6958 12.208 11.9065 13.9973 9.69861 14ZM9.69861 8C8.60596 8.00122 7.71643 8.87891 7.70081 9.97144C7.68518 11.0637 8.54907 11.9668 9.64124 11.999C10.7334 12.0315 11.6494 11.1814 11.6986 10.0901L11.6986 10.49L11.6986 10C11.6986 8.89551 10.8031 8 9.69861 8Z" fill="#3F51B5" fill-opacity="1.000000" fill-rule="nonzero"/>
</svg>
