<svg width="18.906128" height="18.906006" viewBox="0 0 18.9061 18.906" fill="none" xmlns="http://www.w3.org/2000/svg" xmlns:xlink="http://www.w3.org/1999/xlink">
	<desc>
			Created with Pixso.
	</desc>
	<defs/>
	<path id="coolicon" d="M9.83508 18.906C9.30408 18.9076 8.79443 18.6965 8.42004 18.3199L0.58606 10.485C0.172607 10.0728 -0.0393066 9.5 0.00610352 8.91797L0.506104 2.35205C0.577393 1.36438 1.36426 0.57959 2.35205 0.510986L8.91809 0.0109863C8.96899 0 9.021 0 9.07202 0C9.60193 0.00134277 10.1097 0.212036 10.485 0.58606L18.3201 8.42004C18.6953 8.79504 18.9061 9.30396 18.9061 9.83447C18.9061 10.3651 18.6953 10.8739 18.3201 11.249L11.249 18.3199C10.8749 18.6963 10.3657 18.9073 9.83508 18.906ZM9.07104 2L2.5 2.5L2 9.07104L9.83508 16.906L16.905 9.83606L9.07104 2ZM5.59204 7.59204C4.63794 7.59216 3.81641 6.91833 3.63013 5.98254C3.44385 5.04675 3.94446 4.10974 4.82593 3.74438C5.7074 3.37903 6.72412 3.68726 7.25439 4.48059C7.78455 5.2738 7.68066 6.33118 7.0061 7.00598C6.63184 7.38232 6.12268 7.59338 5.59204 7.59204Z" fill="#3F51B5" fill-opacity="1.000000" fill-rule="nonzero"/>
</svg>
